<?xml version="1.0" encoding="UTF-8" standalone="no"?><svg xmlns="http://www.w3.org/2000/svg" xmlns:xlink="http://www.w3.org/1999/xlink" contentScriptType="application/ecmascript" contentStyleType="text/css" height="1262px" preserveAspectRatio="none" style="width:1992px;height:1262px;" version="1.1" viewBox="0 0 1992 1262" width="1992px" zoomAndPan="magnify"><defs/><g><!--MD5=[be5750da26e06623bc49653cefaf97c7]
entity p--><rect fill="#FFFF00" height="100.9375" style="stroke: #A80036; stroke-width: 3.0;" width="250" x="1003" y="724"/><rect fill="#FFFF00" height="10" style="stroke: #A80036; stroke-width: 3.0;" width="20" x="993" y="734"/><rect fill="#FFFF00" height="10" style="stroke: #A80036; stroke-width: 3.0;" width="20" x="993" y="804.9375"/><text fill="#000000" font-family="Roboto" font-size="52" lengthAdjust="spacingAndGlyphs" textLength="210" x="1023" y="792.2422">producer</text><!--MD5=[8e9b2d9d80e066cced8e5d90e9bdea61]
entity c--><rect fill="#FFFF00" height="100.9375" style="stroke: #A80036; stroke-width: 3.0;" width="272" x="12" y="80"/><rect fill="#FFFF00" height="10" style="stroke: #A80036; stroke-width: 3.0;" width="20" x="2" y="90"/><rect fill="#FFFF00" height="10" style="stroke: #A80036; stroke-width: 3.0;" width="20" x="2" y="160.9375"/><text fill="#000000" font-family="Roboto" font-size="52" lengthAdjust="spacingAndGlyphs" textLength="232" x="32" y="148.2422">consumer</text><!--MD5=[99db986d38fb499b252ed01955165f04]
entity kc--><rect fill="#D3D3D3" height="100.9375" style="stroke: #A80036; stroke-width: 3.0;" width="166" x="245" y="1141"/><rect fill="#D3D3D3" height="10" style="stroke: #A80036; stroke-width: 3.0;" width="20" x="235" y="1151"/><rect fill="#D3D3D3" height="10" style="stroke: #A80036; stroke-width: 3.0;" width="20" x="235" y="1221.9375"/><text fill="#000000" font-family="Roboto" font-size="52" lengthAdjust="spacingAndGlyphs" textLength="126" x="265" y="1209.2422">kafka</text><!--MD5=[979c31051cf8d07bdf927ed864b836ec]
entity cl--><ellipse cx="1906" cy="57" fill="#FFFFFF" rx="16" ry="16" style="stroke: #A80036; stroke-width: 4.0;"/><path d="M1906,73 L1906,127 M1880,89 L1932,89 M1906,127 L1880,157 M1906,127 L1932,157 " fill="none" style="stroke: #A80036; stroke-width: 4.0;"/><text fill="#000000" font-family="Roboto" font-size="52" lengthAdjust="spacingAndGlyphs" textLength="124" x="1844" y="211.2422">client</text><!--MD5=[694f580618a8ff0a20e3fd904d058a88]
entity sp--><rect fill="#FFFF00" height="100.9375" style="stroke: #A80036; stroke-width: 3.0;" width="430" x="975" y="80"/><rect fill="#FFFF00" height="10" style="stroke: #A80036; stroke-width: 3.0;" width="20" x="965" y="90"/><rect fill="#FFFF00" height="10" style="stroke: #A80036; stroke-width: 3.0;" width="20" x="965" y="160.9375"/><text fill="#000000" font-family="Roboto" font-size="52" lengthAdjust="spacingAndGlyphs" textLength="390" x="995" y="148.2422">schema-provider</text><!--MD5=[94120e2ee7c3943604d2e7dbc6bddc31]
link sp to cl--><path d="M1416.4554,130 C1560.157,130 1736.7032,130 1833.6622,130 " fill="none" id="sp-cl" style="stroke: #A80036; stroke-width: 2.0;"/><polygon fill="#A80036" points="1843.9386,130,1825.9386,122,1833.9386,130,1825.9386,138,1843.9386,130" style="stroke: #A80036; stroke-width: 2.0;"/><polygon fill="#A80036" points="1405.7946,130,1423.7946,138,1415.7946,130,1423.7946,122,1405.7946,130" style="stroke: #A80036; stroke-width: 2.0;"/><text fill="#000000" font-family="Roboto" font-size="52" lengthAdjust="spacingAndGlyphs" textLength="366" x="1441.5" y="50.2422">request transfer</text><text fill="#000000" font-family="Roboto" font-size="52" lengthAdjust="spacingAndGlyphs" textLength="280" x="1441.5" y="111.1797">using server</text><!--MD5=[8f6e813bfaab142b328a0dbcbb954d91]
link sp to p--><path d="M1185.135,180.5336 C1173.862,297.628 1145.9898,587.1384 1133.83,713.4434 " fill="none" id="sp-&gt;p" style="stroke: #A80036; stroke-width: 2.0;"/><polygon fill="#A80036" points="1132.8424,723.7012,1142.531,706.5509,1133.801,713.7472,1126.6047,705.0172,1132.8424,723.7012" style="stroke: #A80036; stroke-width: 2.0;"/><text fill="#000000" font-family="Roboto" font-size="52" lengthAdjust="spacingAndGlyphs" textLength="408" x="1206" y="333.2422">executes function</text><text fill="#000000" font-family="Roboto" font-size="52" lengthAdjust="spacingAndGlyphs" textLength="290" x="1265" y="394.1797">resulting in a</text><text fill="#000000" font-family="Roboto" font-size="52" lengthAdjust="spacingAndGlyphs" textLength="278" x="1277" y="455.1172">transfer and</text><text fill="#000000" font-family="Roboto" font-size="52" lengthAdjust="spacingAndGlyphs" textLength="468" x="1176" y="516.0547">creates subscription</text><text fill="#000000" font-family="Roboto" font-size="52" lengthAdjust="spacingAndGlyphs" textLength="290" x="1265" y="576.9922">for the result</text><!--MD5=[a9e274f941e496d3d2b249e342953251]
link c to sp--><path d="M284.2234,130 C457.008,130 757.3614,130 964.5438,130 " fill="none" id="c-&gt;sp" style="stroke: #A80036; stroke-width: 2.0;"/><polygon fill="#A80036" points="974.956,130,956.956,122,964.956,130,956.956,138,974.956,130" style="stroke: #A80036; stroke-width: 2.0;"/><text fill="#000000" font-family="Roboto" font-size="52" lengthAdjust="spacingAndGlyphs" textLength="618" x="320.5" y="50.2422">send MoneyTransferResult</text><text fill="#000000" font-family="Roboto" font-size="52" lengthAdjust="spacingAndGlyphs" textLength="538" x="360.5" y="111.1797">for active subscriptions</text><!--MD5=[17ddfbfa79ec15258e7fd3d6d2dc71ca]
link p to kc--><path d="M1031.5014,824.3 C876.2588,905.22 573.0564,1063.2644 420.4386,1142.8164 " fill="none" id="p-&gt;kc" style="stroke: #A80036; stroke-width: 2.0;"/><polygon fill="#A80036" points="411.4996,1147.4758,431.1591,1146.2494,420.3671,1142.8533,423.7632,1132.0613,411.4996,1147.4758" style="stroke: #A80036; stroke-width: 2.0;"/><text fill="#000000" font-family="Roboto" font-size="52" lengthAdjust="spacingAndGlyphs" textLength="218" x="776" y="1007.2422">produces</text><text fill="#000000" font-family="Roboto" font-size="52" lengthAdjust="spacingAndGlyphs" textLength="538" x="776" y="1068.1797">ConfirmMoneyTransfer</text><!--MD5=[55cb83ca2a74855f56e7a3dc1128cf48]
reverse link c to kc--><path d="M158.3238,190.8534 C190.6892,381.6292 289.7794,965.7102 319.4918,1140.8484 " fill="none" id="c&lt;-kc" style="stroke: #A80036; stroke-width: 2.0;"/><polygon fill="#A80036" points="156.5606,180.4604,151.6839,199.5449,158.2332,190.3195,167.4585,196.8688,156.5606,180.4604" style="stroke: #A80036; stroke-width: 2.0;"/><text fill="#000000" font-family="Roboto" font-size="52" lengthAdjust="spacingAndGlyphs" textLength="240" x="276" y="701.2422">consumes</text><text fill="#000000" font-family="Roboto" font-size="52" lengthAdjust="spacingAndGlyphs" textLength="596" x="276" y="762.1797">MoneyTransferConfirmed</text><text fill="#000000" font-family="Roboto" font-size="52" lengthAdjust="spacingAndGlyphs" textLength="86" x="276" y="823.1172">and</text><text fill="#000000" font-family="Roboto" font-size="52" lengthAdjust="spacingAndGlyphs" textLength="490" x="276" y="884.0547">MoneyTransferFailed</text><!--MD5=[b5f53dac591db657c32db419ad148f97]
@startuml
skinparam shadowing false
skinparam defaultFontName Roboto
skinparam defaultFontSize 26

component producer as p #Yellow
component consumer as c #Yellow
component kafka as kc #LightGrey
actor client as cl #White
component "schema-provider" as sp #Yellow

sp <-right-> cl :request transfer\lusing server
sp - -> p :executes function\nresulting in a\n transfer and\ncreates subscription\nfor the result
c -right-> sp :send MoneyTransferResult\nfor active subscriptions
p - -> kc :produces\lConfirmMoneyTransfer
c <- - kc :consumes\lMoneyTransferConfirmed\nand\nMoneyTransferFailed

@enduml

PlantUML version 1.2019.10(Fri Sep 13 22:53:03 CEST 2019)
(GPL source distribution)
Java Runtime: OpenJDK Runtime Environment
JVM: OpenJDK 64-Bit Server VM
Java Version: 11.0.4+10-b304.69
Operating System: Mac OS X
Default Encoding: UTF-8
Language: en
Country: NL
--></g></svg>