<?xml version="1.0" encoding="UTF-8" standalone="no"?><svg xmlns="http://www.w3.org/2000/svg" xmlns:xlink="http://www.w3.org/1999/xlink" contentScriptType="application/ecmascript" contentStyleType="text/css" height="1238px" preserveAspectRatio="none" style="width:1716px;height:1238px;" version="1.1" viewBox="0 0 1716 1238" width="1716px" zoomAndPan="magnify"><defs/><g><!--MD5=[be5750da26e06623bc49653cefaf97c7]
entity p--><rect fill="#FFFF00" height="100.9375" style="stroke: #A80036; stroke-width: 3.0;" width="250" x="367" y="651"/><rect fill="#FFFF00" height="10" style="stroke: #A80036; stroke-width: 3.0;" width="20" x="357" y="661"/><rect fill="#FFFF00" height="10" style="stroke: #A80036; stroke-width: 3.0;" width="20" x="357" y="731.9375"/><text fill="#000000" font-family="Roboto" font-size="52" lengthAdjust="spacingAndGlyphs" textLength="210" x="387" y="719.2422">producer</text><!--MD5=[8e9b2d9d80e066cced8e5d90e9bdea61]
entity c--><rect fill="#FFFF00" height="100.9375" style="stroke: #A80036; stroke-width: 3.0;" width="272" x="938" y="651"/><rect fill="#FFFF00" height="10" style="stroke: #A80036; stroke-width: 3.0;" width="20" x="928" y="661"/><rect fill="#FFFF00" height="10" style="stroke: #A80036; stroke-width: 3.0;" width="20" x="928" y="731.9375"/><text fill="#000000" font-family="Roboto" font-size="52" lengthAdjust="spacingAndGlyphs" textLength="232" x="958" y="719.2422">consumer</text><!--MD5=[99db986d38fb499b252ed01955165f04]
entity kc--><rect fill="#D3D3D3" height="100.9375" style="stroke: #A80036; stroke-width: 3.0;" width="166" x="685" y="1117"/><rect fill="#D3D3D3" height="10" style="stroke: #A80036; stroke-width: 3.0;" width="20" x="675" y="1127"/><rect fill="#D3D3D3" height="10" style="stroke: #A80036; stroke-width: 3.0;" width="20" x="675" y="1197.9375"/><text fill="#000000" font-family="Roboto" font-size="52" lengthAdjust="spacingAndGlyphs" textLength="126" x="705" y="1185.2422">kafka</text><!--MD5=[979c31051cf8d07bdf927ed864b836ec]
entity cl--><ellipse cx="74" cy="57" fill="#FFFFFF" rx="16" ry="16" style="stroke: #A80036; stroke-width: 4.0;"/><path d="M74,73 L74,127 M48,89 L100,89 M74,127 L48,157 M74,127 L100,157 " fill="none" style="stroke: #A80036; stroke-width: 4.0;"/><text fill="#000000" font-family="Roboto" font-size="52" lengthAdjust="spacingAndGlyphs" textLength="124" x="12" y="211.2422">client</text><!--MD5=[694f580618a8ff0a20e3fd904d058a88]
entity sp--><rect fill="#FFFF00" height="100.9375" style="stroke: #A80036; stroke-width: 3.0;" width="430" x="575" y="80"/><rect fill="#FFFF00" height="10" style="stroke: #A80036; stroke-width: 3.0;" width="20" x="565" y="90"/><rect fill="#FFFF00" height="10" style="stroke: #A80036; stroke-width: 3.0;" width="20" x="565" y="160.9375"/><text fill="#000000" font-family="Roboto" font-size="52" lengthAdjust="spacingAndGlyphs" textLength="390" x="595" y="148.2422">schema-provider</text><!--MD5=[ce416eb35adc1d8056c0af1bbec5e02c]
link cl to sp--><path d="M146.8404,130 C244.133,130 420.9154,130 564.5504,130 " fill="none" id="cl-sp" style="stroke: #A80036; stroke-width: 2.0;"/><polygon fill="#A80036" points="574.8332,130,556.8332,122,564.8332,130,556.8332,138,574.8332,130" style="stroke: #A80036; stroke-width: 2.0;"/><polygon fill="#A80036" points="136.2878,130,154.2878,138,146.2878,130,154.2878,122,136.2878,130" style="stroke: #A80036; stroke-width: 2.0;"/><text fill="#000000" font-family="Roboto" font-size="52" lengthAdjust="spacingAndGlyphs" textLength="366" x="172.5" y="50.2422">request transfer</text><text fill="#000000" font-family="Roboto" font-size="52" lengthAdjust="spacingAndGlyphs" textLength="280" x="172.5" y="111.1797">using server</text><!--MD5=[8f6e813bfaab142b328a0dbcbb954d91]
link sp to p--><path d="M628.5784,180.3562 C580.27,203.6792 532.5944,236.7912 504,283 C435.5358,393.6388 457.0484,554.2244 476.113,640.6034 " fill="none" id="sp-&gt;p" style="stroke: #A80036; stroke-width: 2.0;"/><polygon fill="#A80036" points="478.4196,650.7612,482.2347,631.4365,476.205,641.0095,466.632,634.9798,478.4196,650.7612" style="stroke: #A80036; stroke-width: 2.0;"/><text fill="#000000" font-family="Roboto" font-size="52" lengthAdjust="spacingAndGlyphs" textLength="408" x="536" y="333.2422">executes function</text><text fill="#000000" font-family="Roboto" font-size="52" lengthAdjust="spacingAndGlyphs" textLength="290" x="595" y="394.1797">resulting in a</text><text fill="#000000" font-family="Roboto" font-size="52" lengthAdjust="spacingAndGlyphs" textLength="278" x="607" y="455.1172">transfer and</text><text fill="#000000" font-family="Roboto" font-size="52" lengthAdjust="spacingAndGlyphs" textLength="468" x="506" y="516.0547">creates subscription</text><text fill="#000000" font-family="Roboto" font-size="52" lengthAdjust="spacingAndGlyphs" textLength="290" x="595" y="576.9922">for the result</text><!--MD5=[17ddfbfa79ec15258e7fd3d6d2dc71ca]
link p to kc--><path d="M466.9192,751.1368 C433.783,825.2744 386.7836,965.2434 452,1057 C478.4368,1094.1956 591.4474,1127.1678 674.8094,1147.0906 " fill="none" id="p-&gt;kc" style="stroke: #A80036; stroke-width: 2.0;"/><polygon fill="#A80036" points="684.8208,1149.455,669.1416,1137.5318,675.0886,1147.1564,665.4639,1153.1034,684.8208,1149.455" style="stroke: #A80036; stroke-width: 2.0;"/><text fill="#000000" font-family="Roboto" font-size="52" lengthAdjust="spacingAndGlyphs" textLength="218" x="454" y="922.2422">produces</text><text fill="#000000" font-family="Roboto" font-size="52" lengthAdjust="spacingAndGlyphs" textLength="538" x="454" y="983.1797">ConfirmMoneyTransfer</text><!--MD5=[55cb83ca2a74855f56e7a3dc1128cf48]
reverse link c to kc--><path d="M1077.4426,761.9492 C1078.5548,838.7896 1069.3506,971.1914 1002,1057 C964.8606,1104.3178 902.4886,1132.2384 851.4752,1148.1036 " fill="none" id="c&lt;-kc" style="stroke: #A80036; stroke-width: 2.0;"/><polygon fill="#A80036" points="1077.2094,751.0274,1069.5959,769.1943,1077.4231,761.0251,1085.5923,768.8523,1077.2094,751.0274" style="stroke: #A80036; stroke-width: 2.0;"/><text fill="#000000" font-family="Roboto" font-size="52" lengthAdjust="spacingAndGlyphs" textLength="240" x="1078" y="861.2422">consumes</text><text fill="#000000" font-family="Roboto" font-size="52" lengthAdjust="spacingAndGlyphs" textLength="596" x="1078" y="922.1797">MoneyTransferConfirmed</text><text fill="#000000" font-family="Roboto" font-size="52" lengthAdjust="spacingAndGlyphs" textLength="86" x="1078" y="983.1172">and</text><text fill="#000000" font-family="Roboto" font-size="52" lengthAdjust="spacingAndGlyphs" textLength="490" x="1078" y="1044.0547">MoneyTransferFailed</text><!--MD5=[84432b9fded1b1d6df0371e519366671]
reverse link sp to c--><path d="M891.8496,185.6288 C928.7776,210.713 967.4148,243.623 992,283 C1064.8484,399.6776 1075.1262,567.4674 1075.3002,650.5036 " fill="none" id="sp&lt;-c" style="stroke: #A80036; stroke-width: 2.0;"/><polygon fill="#A80036" points="883.5072,180.0724,894.0532,196.7091,891.8299,185.616,902.9231,183.3928,883.5072,180.0724" style="stroke: #A80036; stroke-width: 2.0;"/><text fill="#000000" font-family="Roboto" font-size="52" lengthAdjust="spacingAndGlyphs" textLength="618" x="1074" y="425.2422">send MoneyTransferResult</text><text fill="#000000" font-family="Roboto" font-size="52" lengthAdjust="spacingAndGlyphs" textLength="538" x="1114" y="486.1797">for active subscriptions</text><!--MD5=[f71efd4c02bac50e7c56003bf6507b59]
@startuml
skinparam shadowing false
skinparam defaultFontName Roboto
skinparam defaultFontSize 26

component producer as p #Yellow
component consumer as c #Yellow
component kafka as kc #LightGrey
actor client as cl #White
component "schema-provider" as sp #Yellow

cl <-right-> sp :request transfer\lusing server
sp - -> p :executes function\nresulting in a\n transfer and\ncreates subscription\nfor the result
p - -> kc :produces\lConfirmMoneyTransfer
c <- - kc :consumes\lMoneyTransferConfirmed\nand\nMoneyTransferFailed
sp <- - c :send MoneyTransferResult\nfor active subscriptions

@enduml

PlantUML version 1.2019.10(Fri Sep 13 22:53:03 CEST 2019)
(GPL source distribution)
Java Runtime: OpenJDK Runtime Environment
JVM: OpenJDK 64-Bit Server VM
Java Version: 11.0.4+10-b304.69
Operating System: Mac OS X
Default Encoding: UTF-8
Language: en
Country: NL
--></g></svg>