<?xml version="1.0" encoding="UTF-8" standalone="no"?><svg xmlns="http://www.w3.org/2000/svg" xmlns:xlink="http://www.w3.org/1999/xlink" contentScriptType="application/ecmascript" contentStyleType="text/css" height="1068px" preserveAspectRatio="none" style="width:1604px;height:1068px;" version="1.1" viewBox="0 0 1604 1068" width="1604px" zoomAndPan="magnify"><defs><filter height="300%" id="f1unvmztkxzbk3" width="300%" x="-1" y="-1"><feGaussianBlur result="blurOut" stdDeviation="4.0"/><feColorMatrix in="blurOut" result="blurOut2" type="matrix" values="0 0 0 0 0 0 0 0 0 0 0 0 0 0 0 0 0 0 .4 0"/><feOffset dx="8.0" dy="8.0" in="blurOut2" result="blurOut3"/><feBlend in="SourceGraphic" in2="blurOut3" mode="normal"/></filter></defs><g><!--MD5=[be5750da26e06623bc49653cefaf97c7]
entity p--><rect fill="#FFFF00" filter="url(#f1unvmztkxzbk3)" height="86.875" style="stroke: #A80036; stroke-width: 3.0;" width="198" x="802" y="606"/><rect fill="#FFFF00" height="10" style="stroke: #A80036; stroke-width: 3.0;" width="20" x="792" y="616"/><rect fill="#FFFF00" height="10" style="stroke: #A80036; stroke-width: 3.0;" width="20" x="792" y="672.875"/><text fill="#000000" font-family="Roboto" font-size="40" lengthAdjust="spacingAndGlyphs" textLength="158" x="822" y="663.1094">producer</text><!--MD5=[8e9b2d9d80e066cced8e5d90e9bdea61]
entity c--><rect fill="#FFFF00" filter="url(#f1unvmztkxzbk3)" height="86.875" style="stroke: #A80036; stroke-width: 3.0;" width="218" x="12" y="63"/><rect fill="#FFFF00" height="10" style="stroke: #A80036; stroke-width: 3.0;" width="20" x="2" y="73"/><rect fill="#FFFF00" height="10" style="stroke: #A80036; stroke-width: 3.0;" width="20" x="2" y="129.875"/><text fill="#000000" font-family="Roboto" font-size="40" lengthAdjust="spacingAndGlyphs" textLength="178" x="32" y="120.1094">consumer</text><!--MD5=[99db986d38fb499b252ed01955165f04]
entity kc--><rect fill="#D3D3D3" filter="url(#f1unvmztkxzbk3)" height="86.875" style="stroke: #A80036; stroke-width: 3.0;" width="138" x="208" y="960"/><rect fill="#D3D3D3" height="10" style="stroke: #A80036; stroke-width: 3.0;" width="20" x="198" y="970"/><rect fill="#D3D3D3" height="10" style="stroke: #A80036; stroke-width: 3.0;" width="20" x="198" y="1026.875"/><text fill="#000000" font-family="Roboto" font-size="40" lengthAdjust="spacingAndGlyphs" textLength="98" x="228" y="1017.1094">kafka</text><!--MD5=[979c31051cf8d07bdf927ed864b836ec]
entity cl--><ellipse cx="1531" cy="36" fill="#FEFECE" filter="url(#f1unvmztkxzbk3)" rx="16" ry="16" style="stroke: #A80036; stroke-width: 4.0;"/><path d="M1531,52 L1531,106 M1505,68 L1557,68 M1531,106 L1505,136 M1531,106 L1557,136 " fill="none" filter="url(#f1unvmztkxzbk3)" style="stroke: #A80036; stroke-width: 4.0;"/><text fill="#000000" font-family="Roboto" font-size="40" lengthAdjust="spacingAndGlyphs" textLength="98" x="1482" y="187.1094">client</text><!--MD5=[694f580618a8ff0a20e3fd904d058a88]
entity sp--><rect fill="#FFFF00" filter="url(#f1unvmztkxzbk3)" height="86.875" style="stroke: #A80036; stroke-width: 3.0;" width="340" x="781" y="63"/><rect fill="#FFFF00" height="10" style="stroke: #A80036; stroke-width: 3.0;" width="20" x="771" y="73"/><rect fill="#FFFF00" height="10" style="stroke: #A80036; stroke-width: 3.0;" width="20" x="771" y="129.875"/><text fill="#000000" font-family="Roboto" font-size="40" lengthAdjust="spacingAndGlyphs" textLength="300" x="801" y="120.1094">schema-provider</text><!--MD5=[94120e2ee7c3943604d2e7dbc6bddc31]
link sp to cl--><path d="M1131.2946,106 C1247.8172,106 1392.055,106 1471.5002,106 " fill="none" id="sp-cl" style="stroke: #A80036; stroke-width: 2.0;"/><polygon fill="#A80036" points="1481.8008,106,1463.8008,98,1471.8008,106,1463.8008,114,1481.8008,106" style="stroke: #A80036; stroke-width: 2.0;"/><polygon fill="#A80036" points="1121.1002,106,1139.1002,114,1131.1002,106,1139.1002,98,1121.1002,106" style="stroke: #A80036; stroke-width: 2.0;"/><text fill="#000000" font-family="Roboto" font-size="40" lengthAdjust="spacingAndGlyphs" textLength="288" x="1157.5" y="43.1094">request transfer</text><text fill="#000000" font-family="Roboto" font-size="40" lengthAdjust="spacingAndGlyphs" textLength="218" x="1157.5" y="89.9844">using server</text><!--MD5=[8f6e813bfaab142b328a0dbcbb954d91]
link sp to p--><path d="M946.9928,149.518 C937.9232,248.013 915.845,487.7822 905.9454,595.2926 " fill="none" id="sp-&gt;p" style="stroke: #A80036; stroke-width: 2.0;"/><polygon fill="#A80036" points="905.0262,605.2746,914.6434,588.0842,905.9434,595.3167,898.7108,586.6167,905.0262,605.2746" style="stroke: #A80036; stroke-width: 2.0;"/><text fill="#000000" font-family="Roboto" font-size="40" lengthAdjust="spacingAndGlyphs" textLength="318" x="959" y="295.1094">executes function</text><text fill="#000000" font-family="Roboto" font-size="40" lengthAdjust="spacingAndGlyphs" textLength="230" x="1003" y="341.9844">resulting in a</text><text fill="#000000" font-family="Roboto" font-size="40" lengthAdjust="spacingAndGlyphs" textLength="218" x="1014" y="388.8594">transfer and</text><text fill="#000000" font-family="Roboto" font-size="40" lengthAdjust="spacingAndGlyphs" textLength="362" x="937" y="435.7344">creates subscription</text><text fill="#000000" font-family="Roboto" font-size="40" lengthAdjust="spacingAndGlyphs" textLength="230" x="1003" y="482.6094">for the result</text><!--MD5=[a9e274f941e496d3d2b249e342953251]
link c to sp--><path d="M230.3616,106 C367.7674,106 605.483,106 770.1264,106 " fill="none" id="c-&gt;sp" style="stroke: #A80036; stroke-width: 2.0;"/><polygon fill="#A80036" points="780.8638,106,762.8638,98,770.8638,106,762.8638,114,780.8638,106" style="stroke: #A80036; stroke-width: 2.0;"/><text fill="#000000" font-family="Roboto" font-size="40" lengthAdjust="spacingAndGlyphs" textLength="478" x="266.5" y="43.1094">send MoneyTransferResult</text><text fill="#000000" font-family="Roboto" font-size="40" lengthAdjust="spacingAndGlyphs" textLength="416" x="297.5" y="89.9844">for active subscriptions</text><!--MD5=[17ddfbfa79ec15258e7fd3d6d2dc71ca]
link p to kc--><path d="M825.1092,692.0534 C706.0856,759.5764 476.6606,889.731 355.841,958.2728 " fill="none" id="p-&gt;kc" style="stroke: #A80036; stroke-width: 2.0;"/><polygon fill="#A80036" points="346.6232,963.5022,366.2267,961.5784,355.321,958.5678,358.3316,947.662,346.6232,963.5022" style="stroke: #A80036; stroke-width: 2.0;"/><text fill="#000000" font-family="Roboto" font-size="40" lengthAdjust="spacingAndGlyphs" textLength="164" x="627" y="843.1094">produces</text><text fill="#000000" font-family="Roboto" font-size="40" lengthAdjust="spacingAndGlyphs" textLength="414" x="627" y="889.9844">ConfirmMoneyTransfer</text><!--MD5=[55cb83ca2a74855f56e7a3dc1128cf48]
reverse link c to kc--><path d="M130.309,159.5268 C158.667,322.5854 243.6192,811.0608 269.4602,959.646 " fill="none" id="c&lt;-kc" style="stroke: #A80036; stroke-width: 2.0;"/><polygon fill="#A80036" points="128.5242,149.2642,123.7267,168.3688,130.2376,159.1163,139.4901,165.6272,128.5242,149.2642" style="stroke: #A80036; stroke-width: 2.0;"/><text fill="#000000" font-family="Roboto" font-size="40" lengthAdjust="spacingAndGlyphs" textLength="184" x="235" y="593.1094">consumes</text><text fill="#000000" font-family="Roboto" font-size="40" lengthAdjust="spacingAndGlyphs" textLength="458" x="235" y="639.9844">MoneyTransferConfirmed</text><text fill="#000000" font-family="Roboto" font-size="40" lengthAdjust="spacingAndGlyphs" textLength="66" x="235" y="686.8594">and</text><text fill="#000000" font-family="Roboto" font-size="40" lengthAdjust="spacingAndGlyphs" textLength="378" x="235" y="733.7344">MoneyTransferFailed</text><!--MD5=[aaeac6e3918440667a4f65262392bfe7]
@startuml
skinparam defaultFontName Roboto
skinparam defaultFontSize 20

component producer as p #Yellow
component consumer as c #Yellow
component kafka as kc #LightGrey
actor client as cl
component "schema-provider" as sp #Yellow

sp <-right-> cl :request transfer\lusing server
sp - -> p :executes function\nresulting in a\n transfer and\ncreates subscription\nfor the result
c -right-> sp :send MoneyTransferResult\nfor active subscriptions
p - -> kc :produces\lConfirmMoneyTransfer
c <- - kc :consumes\lMoneyTransferConfirmed\nand\nMoneyTransferFailed

@enduml

PlantUML version 1.2019.10(Fri Sep 13 22:53:03 CEST 2019)
(GPL source distribution)
Java Runtime: OpenJDK Runtime Environment
JVM: OpenJDK 64-Bit Server VM
Java Version: 11.0.3+12-b304.56
Operating System: Mac OS X
Default Encoding: UTF-8
Language: en
Country: NL
--></g></svg>