<?xml version="1.0" encoding="UTF-8" standalone="no"?><svg xmlns="http://www.w3.org/2000/svg" xmlns:xlink="http://www.w3.org/1999/xlink" contentScriptType="application/ecmascript" contentStyleType="text/css" height="642px" preserveAspectRatio="none" style="width:1408px;height:642px;" version="1.1" viewBox="0 0 1408 642" width="1408px" zoomAndPan="magnify"><defs/><g><!--MD5=[3f68d4dc223b97cf42d9a4fab61c80ab]
cluster nl.openweb.synchronizer--><polygon fill="#FFFF00" points="172,32,778,32,792,104.9375,816,104.9375,816,230,172,230,172,32" style="stroke: #000000; stroke-width: 3.0;"/><line style="stroke: #000000; stroke-width: 3.0;" x1="172" x2="792" y1="104.9375" y2="104.9375"/><text fill="#000000" font-family="Roboto" font-size="52" font-weight="bold" lengthAdjust="spacingAndGlyphs" textLength="594" x="180" y="84.2422">nl.openweb.synchronizer</text><!--MD5=[79a439086b036a57b90a01d7b2f8bbd1]
entity admin--><rect fill="#FEFECE" height="100.9375" style="stroke: #A80036; stroke-width: 3.0;" width="250" x="189" y="114"/><rect fill="#FEFECE" height="10" style="stroke: #A80036; stroke-width: 3.0;" width="20" x="179" y="124"/><rect fill="#FEFECE" height="10" style="stroke: #A80036; stroke-width: 3.0;" width="20" x="179" y="194.9375"/><text fill="#000000" font-family="Roboto" font-size="52" lengthAdjust="spacingAndGlyphs" textLength="210" x="209" y="182.2422">admin.clj</text><!--MD5=[08d9b5744ff2301332a382dd7d96185e]
entity schema--><rect fill="#FEFECE" height="100.9375" style="stroke: #A80036; stroke-width: 3.0;" width="290" x="509" y="114"/><rect fill="#FEFECE" height="10" style="stroke: #A80036; stroke-width: 3.0;" width="20" x="499" y="124"/><rect fill="#FEFECE" height="10" style="stroke: #A80036; stroke-width: 3.0;" width="20" x="499" y="194.9375"/><text fill="#000000" font-family="Roboto" font-size="52" lengthAdjust="spacingAndGlyphs" textLength="250" x="529" y="182.2422">schema.clj</text><!--MD5=[99db986d38fb499b252ed01955165f04]
entity kc--><rect fill="#FFA500" height="100.9375" style="stroke: #A80036; stroke-width: 3.0;" width="340" x="12" y="520"/><rect fill="#FFA500" height="10" style="stroke: #A80036; stroke-width: 3.0;" width="20" x="2" y="530"/><rect fill="#FFA500" height="10" style="stroke: #A80036; stroke-width: 3.0;" width="20" x="2" y="600.9375"/><text fill="#000000" font-family="Roboto" font-size="52" lengthAdjust="spacingAndGlyphs" textLength="300" x="32" y="588.2422">Kafka cluster</text><!--MD5=[74d933e1d656676adfcd4a7f27d1afee]
entity sr--><rect fill="#FFA500" height="100.9375" style="stroke: #A80036; stroke-width: 3.0;" width="412" x="582" y="520"/><rect fill="#FFA500" height="10" style="stroke: #A80036; stroke-width: 3.0;" width="20" x="572" y="530"/><rect fill="#FFA500" height="10" style="stroke: #A80036; stroke-width: 3.0;" width="20" x="572" y="600.9375"/><text fill="#000000" font-family="Roboto" font-size="52" lengthAdjust="spacingAndGlyphs" textLength="372" x="602" y="588.2422">Schema registry</text><!--MD5=[eafaf6adb467bb9935bf7969c08d0e63]
link admin to kc--><path d="M226.6668,214.267 C206.3126,230.529 187.3022,250.5378 176,274 C139.9416,348.8542 151.813,447.1964 165.4616,509.5186 " fill="none" id="admin-&gt;kc" style="stroke: #A80036; stroke-width: 2.0;"/><polygon fill="#A80036" points="167.8392,519.9616,171.6436,500.6348,165.6192,510.2111,156.0429,504.1867,167.8392,519.9616" style="stroke: #A80036; stroke-width: 2.0;"/><text fill="#000000" font-family="Roboto" font-size="52" lengthAdjust="spacingAndGlyphs" textLength="516" x="181" y="324.2422">creates/deletes topics</text><text fill="#000000" font-family="Roboto" font-size="52" lengthAdjust="spacingAndGlyphs" textLength="522" x="178" y="385.1797">using the topology.edn</text><text fill="#000000" font-family="Roboto" font-size="52" lengthAdjust="spacingAndGlyphs" textLength="0" x="445" y="446.1172"/><!--MD5=[acc0b4437e7772cc4a567cae015bfd11]
link schema to sr--><path d="M682.5358,214.4526 C692.1502,232.8118 702.3652,253.9766 710,274 C740.2476,353.3294 763.1196,448.9224 776.0416,509.586 " fill="none" id="schema-&gt;sr" style="stroke: #A80036; stroke-width: 2.0;"/><polygon fill="#A80036" points="778.184,519.7536,782.3005,500.4908,776.122,509.9685,766.6443,503.79,778.184,519.7536" style="stroke: #A80036; stroke-width: 2.0;"/><text fill="#000000" font-family="Roboto" font-size="52" lengthAdjust="spacingAndGlyphs" textLength="620" x="764" y="355.2422">sets/updates the schema's</text><text fill="#000000" font-family="Roboto" font-size="52" lengthAdjust="spacingAndGlyphs" textLength="530" x="809" y="416.1797">using the schemas.edn</text><!--MD5=[7bacce429c54ad782333286ca1a8b01c]
@startuml
skinparam shadowing false
skinparam defaultFontName Roboto
skinparam defaultFontSize 26

package nl.openweb.synchronizer #Yellow {
    component admin.clj as admin
    component schema.clj as schema
}
[Kafka cluster] as kc #Orange
[Schema registry] as sr #Orange

admin - -> kc: creates/deletes topics\nusing the topology.edn\n
schema - -> sr: sets/updates the schema's\nusing the schemas.edn

@enduml

PlantUML version 1.2019.10(Fri Sep 13 22:53:03 CEST 2019)
(GPL source distribution)
Java Runtime: OpenJDK Runtime Environment
JVM: OpenJDK 64-Bit Server VM
Java Version: 11.0.4+10-b304.69
Operating System: Mac OS X
Default Encoding: UTF-8
Language: en
Country: NL
--></g></svg>