<?xml version="1.0" encoding="UTF-8" standalone="no"?><svg xmlns="http://www.w3.org/2000/svg" xmlns:xlink="http://www.w3.org/1999/xlink" contentScriptType="application/ecmascript" contentStyleType="text/css" height="924px" preserveAspectRatio="none" style="width:1720px;height:924px;" version="1.1" viewBox="0 0 1720 924" width="1720px" zoomAndPan="magnify"><defs/><g><!--MD5=[38f4936ac82e315a639a548dbdbbb686]
cluster resources--><polygon fill="#FFFFFF" points="28,32,272,32,286,104.9375,1216,104.9375,1216,230,28,230,28,32" style="stroke: #000000; stroke-width: 3.0;"/><line style="stroke: #000000; stroke-width: 3.0;" x1="28" x2="286" y1="104.9375" y2="104.9375"/><text fill="#000000" font-family="Roboto" font-size="52" font-weight="bold" lengthAdjust="spacingAndGlyphs" textLength="232" x="36" y="84.2422">resources</text><!--MD5=[b8126c81252de049c824a7564d46b033]
entity lb--><polygon fill="#FEFECE" points="45,114,45,214.9375,367,214.9375,367,134,347,114,45,114" style="stroke: #000000; stroke-width: 3.0;"/><path d="M347,114 L347,134 L367,134 " fill="#FEFECE" style="stroke: #000000; stroke-width: 3.0;"/><text fill="#000000" font-family="Roboto" font-size="52" lengthAdjust="spacingAndGlyphs" textLength="282" x="65" y="182.2422">logback.xml</text><!--MD5=[f6c8693f2725baec96dbc257309cbcf0]
entity sc--><polygon fill="#FEFECE" points="437,114,437,214.9375,787,214.9375,787,134,767,114,437,114" style="stroke: #000000; stroke-width: 3.0;"/><path d="M767,114 L767,134 L787,134 " fill="#FEFECE" style="stroke: #000000; stroke-width: 3.0;"/><text fill="#000000" font-family="Roboto" font-size="52" lengthAdjust="spacingAndGlyphs" textLength="310" x="457" y="182.2422">schemas.edn</text><!--MD5=[00f9e30d6ead67871b5f4dcdb52564e0]
entity tf--><polygon fill="#FEFECE" points="857,114,857,214.9375,1199,214.9375,1199,134,1179,114,857,114" style="stroke: #000000; stroke-width: 3.0;"/><path d="M1179,114 L1179,134 L1199,134 " fill="#FEFECE" style="stroke: #000000; stroke-width: 3.0;"/><text fill="#000000" font-family="Roboto" font-size="52" lengthAdjust="spacingAndGlyphs" textLength="302" x="877" y="182.2422">topology.edn</text><!--MD5=[d48c0c38e347abee984a4c8b87a0ab3b]
entity tj--><rect fill="#FFFF00" height="100.9375" style="stroke: #A80036; stroke-width: 3.0;" width="314" x="455" y="458"/><rect fill="#FFFF00" height="10" style="stroke: #A80036; stroke-width: 3.0;" width="20" x="445" y="468"/><rect fill="#FFFF00" height="10" style="stroke: #A80036; stroke-width: 3.0;" width="20" x="445" y="538.9375"/><text fill="#000000" font-family="Roboto" font-size="52" lengthAdjust="spacingAndGlyphs" textLength="274" x="475" y="526.2422">topology.jar</text><!--MD5=[979c31051cf8d07bdf927ed864b836ec]
entity cl--><rect fill="#FEFECE" height="100.9375" style="stroke: #A80036; stroke-width: 3.0;" width="256" x="250" y="802"/><rect fill="#FEFECE" height="10" style="stroke: #A80036; stroke-width: 3.0;" width="20" x="240" y="812"/><rect fill="#FEFECE" height="10" style="stroke: #A80036; stroke-width: 3.0;" width="20" x="240" y="882.9375"/><text fill="#000000" font-family="Roboto" font-size="52" lengthAdjust="spacingAndGlyphs" textLength="216" x="270" y="870.2422">clients.clj</text><!--MD5=[d9fad43908b9e3e9d92050cea761efe3]
entity vg--><rect fill="#FEFECE" height="100.9375" style="stroke: #A80036; stroke-width: 3.0;" width="476" x="608" y="802"/><rect fill="#FEFECE" height="10" style="stroke: #A80036; stroke-width: 3.0;" width="20" x="598" y="812"/><rect fill="#FEFECE" height="10" style="stroke: #A80036; stroke-width: 3.0;" width="20" x="598" y="882.9375"/><text fill="#000000" font-family="Roboto" font-size="52" lengthAdjust="spacingAndGlyphs" textLength="436" x="628" y="870.2422">value_generator.clj</text><!--MD5=[7f3188ab1fd0af2ece8ea590a4452ecd]
link tf to tj--><path d="M1130.9858,214.2896 C1153.0468,230.1788 1173.4666,250.0026 1186,274 C1211.5132,322.8498 1221.1112,355.5212 1186,398 C1135.2602,459.3868 930.908,486.8504 780.417,498.912 " fill="none" id="tf-&gt;tj" style="stroke: #A80036; stroke-width: 2.0;"/><polygon fill="#A80036" points="769.6776,499.754,788.2481,506.3219,779.647,498.972,786.9969,490.3709,769.6776,499.754" style="stroke: #A80036; stroke-width: 2.0;"/><text fill="#000000" font-family="Roboto" font-size="52" lengthAdjust="spacingAndGlyphs" textLength="430" x="1238" y="324.2422">Provides topic info</text><text fill="#000000" font-family="Roboto" font-size="52" lengthAdjust="spacingAndGlyphs" textLength="486" x="1210" y="385.1797">links topic to schema</text><!--MD5=[302d7cfb97f6f59c9ee64e3fbde6ebc7]
link lb to tj--><path d="M160.674,214.1004 C147.496,231.7634 134.8218,252.5856 128,274 C111.2718,326.511 93.619,354.9282 128,398 C167.4118,447.374 320.4572,476.2752 444.0362,491.9582 " fill="none" id="lb-&gt;tj" style="stroke: #A80036; stroke-width: 2.0;"/><polygon fill="#A80036" points="454.3854,493.2496,437.5146,483.0822,444.4624,492.0113,435.5333,498.9591,454.3854,493.2496" style="stroke: #A80036; stroke-width: 2.0;"/><text fill="#000000" font-family="Roboto" font-size="52" lengthAdjust="spacingAndGlyphs" textLength="456" x="130" y="354.2422">Set logging defaults</text><!--MD5=[6fd4cc40c261411dd0475e7364f3e1a1]
link sc to tj--><path d="M608.6754,214.3566 C607.592,233.0752 606.5314,254.4992 606,274 C604.4986,329.0906 604.4986,342.9094 606,398 C606.4318,413.8444 607.2128,430.9584 608.0718,446.8594 " fill="none" id="sc-&gt;tj" style="stroke: #A80036; stroke-width: 2.0;"/><polygon fill="#A80036" points="608.6754,457.6434,615.6564,439.2242,608.1163,447.659,599.6815,440.1189,608.6754,457.6434" style="stroke: #A80036; stroke-width: 2.0;"/><text fill="#000000" font-family="Roboto" font-size="52" lengthAdjust="spacingAndGlyphs" textLength="568" x="608" y="324.2422">Compiled to java objects</text><text fill="#000000" font-family="Roboto" font-size="52" lengthAdjust="spacingAndGlyphs" textLength="544" x="620" y="385.1797">Able to get all schema's</text><!--MD5=[2db1603ee601b6067bc5ec9b4a6dad96]
reverse link tj to cl--><path d="M445.4006,554.0112 C416.3026,569.6088 389.7222,590.3824 372,618 C336.6646,673.0654 348.1476,751.4212 361.5362,801.993 " fill="none" id="tj&lt;-cl" style="stroke: #A80036; stroke-width: 2.0;"/><polygon fill="#A80036" points="454.5048,549.3348,434.8383,550.4431,445.6097,553.9039,442.1489,564.6753,454.5048,549.3348" style="stroke: #A80036; stroke-width: 2.0;"/><text fill="#000000" font-family="Roboto" font-size="52" lengthAdjust="spacingAndGlyphs" textLength="384" x="374" y="668.2422">Clojure producer</text><text fill="#000000" font-family="Roboto" font-size="52" lengthAdjust="spacingAndGlyphs" textLength="330" x="401" y="729.1797">and consumer</text><!--MD5=[54ba467abcd864b3297e7098e4ab9984]
reverse link tj to vg--><path d="M711.9816,564.2104 C732.7018,579.501 752.8164,597.5724 768,618 C808.8732,672.9894 829.1236,750.6482 838.5636,801.1596 " fill="none" id="tj&lt;-vg" style="stroke: #A80036; stroke-width: 2.0;"/><polygon fill="#A80036" points="703.7084,558.2694,713.6624,575.267,711.8309,564.1025,722.9954,562.271,703.7084,558.2694" style="stroke: #A80036; stroke-width: 2.0;"/><text fill="#000000" font-family="Roboto" font-size="52" lengthAdjust="spacingAndGlyphs" textLength="378" x="824" y="668.2422">Util functions for</text><text fill="#000000" font-family="Roboto" font-size="52" lengthAdjust="spacingAndGlyphs" textLength="306" x="860" y="729.1797">iban and uuid</text><!--MD5=[86e27e1c72e0bb01ffd2a914bc843235]
@startuml
skinparam shadowing false
skinparam defaultFontName Roboto
skinparam defaultFontSize 26

package resources{
    file logback.xml as lb
    file schemas.edn as sc
    file topology.edn as tf
}
component topology.jar as tj #Yellow
component clients.clj as cl
component value_generator.clj as vg

tf - -> tj: Provides topic info\nlinks topic to schema
lb - -> tj: Set logging defaults
sc - -> tj: Compiled to java objects\nAble to get all schema's
tj <- - cl: Clojure producer\nand consumer
tj <- - vg: Util functions for\niban and uuid

@enduml

PlantUML version 1.2019.10(Fri Sep 13 22:53:03 CEST 2019)
(GPL source distribution)
Java Runtime: OpenJDK Runtime Environment
JVM: OpenJDK 64-Bit Server VM
Java Version: 11.0.4+10-b304.69
Operating System: Mac OS X
Default Encoding: UTF-8
Language: en
Country: NL
--></g></svg>